<svg width="20" height="20" viewBox="0 0 20 20" fill="none" xmlns="http://www.w3.org/2000/svg">
<path d="M9.98834 0.625488C15.4508 0.625488 19.879 4.82309 19.879 10.0005C19.8787 15.1777 15.4506 19.3745 9.98834 19.3745C4.52607 19.3745 0.0979957 15.1777 0.0977173 10.0005C0.0977173 4.82309 4.5259 0.625488 9.98834 0.625488ZM15.5049 6.22705C15.1144 5.83662 14.4814 5.83656 14.0909 6.22705L8.66608 11.6519L5.8858 8.87256C5.49531 8.48201 4.86229 8.48206 4.47174 8.87256C4.08139 9.26307 4.08131 9.89614 4.47174 10.2866L7.95807 13.7739C8.14549 13.9614 8.40003 14.0668 8.6651 14.0669C8.93033 14.0669 9.18556 13.9615 9.37311 13.7739L15.5049 7.64111C15.8955 7.25059 15.8955 6.61758 15.5049 6.22705Z" fill="#6BE185"/>
</svg>
