<svg width="18" height="20" viewBox="0 0 18 20" fill="none" xmlns="http://www.w3.org/2000/svg">
<path d="M17.278 3.50993H13.6682V2.78882C13.6682 2.21507 13.44 1.66482 13.0339 1.25911C12.6277 0.85341 12.0768 0.625488 11.5023 0.625488H7.17057C6.59615 0.625488 6.04524 0.85341 5.63906 1.25911C5.23288 1.66482 5.00469 2.21507 5.00469 2.78882V3.50993H1.39487C1.2034 3.50993 1.01976 3.5859 0.884371 3.72114C0.748976 3.85637 0.672913 4.03979 0.672913 4.23104C0.672913 4.42229 0.748976 4.60571 0.884371 4.74094C1.01976 4.87617 1.2034 4.95215 1.39487 4.95215H2.11684V17.9321C2.11684 18.3146 2.26896 18.6815 2.53975 18.9519C2.81054 19.2224 3.17781 19.3743 3.56076 19.3743H15.1122C15.4951 19.3743 15.8624 19.2224 16.1332 18.9519C16.404 18.6815 16.5561 18.3146 16.5561 17.9321V4.95215H17.278C17.4695 4.95215 17.6532 4.87617 17.7886 4.74094C17.9239 4.60571 18 4.42229 18 4.23104C18 4.03979 17.9239 3.85637 17.7886 3.72114C17.6532 3.5859 17.4695 3.50993 17.278 3.50993ZM7.89254 14.3266C7.89254 14.5178 7.81647 14.7012 7.68108 14.8365C7.54568 14.9717 7.36205 15.0477 7.17057 15.0477C6.9791 15.0477 6.79546 14.9717 6.66007 14.8365C6.52468 14.7012 6.44861 14.5178 6.44861 14.3266V8.5577C6.44861 8.36645 6.52468 8.18303 6.66007 8.0478C6.79546 7.91256 6.9791 7.83659 7.17057 7.83659C7.36205 7.83659 7.54568 7.91256 7.68108 8.0478C7.81647 8.18303 7.89254 8.36645 7.89254 8.5577V14.3266ZM12.2243 14.3266C12.2243 14.5178 12.1482 14.7012 12.0129 14.8365C11.8775 14.9717 11.6938 15.0477 11.5023 15.0477C11.3109 15.0477 11.1272 14.9717 10.9918 14.8365C10.8564 14.7012 10.7804 14.5178 10.7804 14.3266V8.5577C10.7804 8.36645 10.8564 8.18303 10.9918 8.0478C11.1272 7.91256 11.3109 7.83659 11.5023 7.83659C11.6938 7.83659 11.8775 7.91256 12.0129 8.0478C12.1482 8.18303 12.2243 8.36645 12.2243 8.5577V14.3266ZM12.2243 3.50993H6.44861V2.78882C6.44861 2.59757 6.52468 2.41415 6.66007 2.27892C6.79546 2.14368 6.9791 2.06771 7.17057 2.06771H11.5023C11.6938 2.06771 11.8775 2.14368 12.0129 2.27892C12.1482 2.41415 12.2243 2.59757 12.2243 2.78882V3.50993Z" fill="#8D8D8D"/>
</svg>
