<svg width="48" height="48" viewBox="0 0 48 48" fill="none" xmlns="http://www.w3.org/2000/svg">
<g filter="url(#filter0_d_468_7669)">
<circle cx="23.8906" cy="24.2002" r="19.25" fill="white"/>
<circle cx="23.8906" cy="24.2002" r="19.25" fill="url(#paint0_linear_468_7669)" fill-opacity="0.2"/>
<circle cx="15.7452" cy="25.6798" r="5.18269" fill="#2B2B2B"/>
<circle cx="31.2921" cy="25.6798" r="5.18269" fill="#2B2B2B"/>
<path d="M23.5197 18.2764C18.7812 18.2764 14.7586 19.8805 13.1544 21.2379C12.7842 24.693 18.3368 30.1225 18.3368 30.1225C21.2984 27.5312 25.3704 27.161 27.9618 29.7523L33.8851 21.2379C32.4043 20.2507 28.2582 18.2764 23.5197 18.2764Z" fill="#2B2B2B"/>
<circle cx="2.22115" cy="2.22115" r="2.22115" transform="matrix(-1 0 0 1 17.9688 23.46)" fill="white"/>
<circle cx="2.22115" cy="2.22115" r="2.22115" transform="matrix(-1 0 0 1 33.5156 23.46)" fill="white"/>
</g>
<defs>
<filter id="filter0_d_468_7669" x="0.640625" y="0.59082" width="47" height="47" filterUnits="userSpaceOnUse" color-interpolation-filters="sRGB">
<feFlood flood-opacity="0" result="BackgroundImageFix"/>
<feColorMatrix in="SourceAlpha" type="matrix" values="0 0 0 0 0 0 0 0 0 0 0 0 0 0 0 0 0 0 127 0" result="hardAlpha"/>
<feOffset/>
<feGaussianBlur stdDeviation="2"/>
<feComposite in2="hardAlpha" operator="out"/>
<feColorMatrix type="matrix" values="0 0 0 0 0 0 0 0 0 0 0 0 0 0 0 0 0 0 0.25 0"/>
<feBlend mode="normal" in2="BackgroundImageFix" result="effect1_dropShadow_468_7669"/>
<feBlend mode="normal" in="SourceGraphic" in2="effect1_dropShadow_468_7669" result="shape"/>
</filter>
<linearGradient id="paint0_linear_468_7669" x1="23.8906" y1="4.9502" x2="23.8906" y2="43.4502" gradientUnits="userSpaceOnUse">
<stop stop-opacity="0"/>
<stop offset="1"/>
</linearGradient>
</defs>
</svg>
