<svg width="25" height="25" viewBox="0 0 25 25" fill="none" xmlns="http://www.w3.org/2000/svg">
<path d="M23.7194 4.74292C23.7087 4.55944 23.6309 4.38628 23.501 4.25631C23.371 4.12635 23.1979 4.04863 23.0144 4.03792C18.1619 3.75667 14.2656 5.23229 12.5912 7.99604C11.485 9.82323 11.4869 12.0423 12.5762 14.1592C11.9562 14.8973 11.503 15.7608 11.2478 16.6904L9.72249 15.1595C10.4556 13.6285 10.4275 12.0329 9.62874 10.7073C8.39124 8.66448 5.53468 7.56948 1.98812 7.77761C1.80464 7.78832 1.63148 7.86604 1.50151 7.996C1.37155 8.12596 1.29383 8.29912 1.28312 8.48261C1.07406 12.0292 2.16999 14.8857 4.21281 16.1232C4.88693 16.5351 5.66157 16.7531 6.45156 16.7532C7.21834 16.7438 7.97319 16.5621 8.66031 16.2217L11.0041 18.5654V21.2532C11.0041 21.4521 11.0831 21.6429 11.2237 21.7836C11.3644 21.9242 11.5551 22.0032 11.7541 22.0032C11.953 22.0032 12.1437 21.9242 12.2844 21.7836C12.425 21.6429 12.5041 21.4521 12.5041 21.2532V18.4885C12.5007 17.2954 12.9068 16.1372 13.6544 15.2073C14.619 15.7114 15.6888 15.9812 16.7772 15.9948C17.8294 15.9982 18.8621 15.7107 19.7612 15.1642C22.525 13.4917 24.0044 9.59542 23.7194 4.74292ZM4.98624 14.8407C3.54812 13.9698 2.73437 11.9082 2.75406 9.25323C5.40906 9.23073 7.47062 10.0473 8.34156 11.4854C8.79624 12.2354 8.87031 13.1101 8.57218 14.011L6.28374 11.7226C6.14195 11.5879 5.95314 11.5139 5.75756 11.5164C5.56199 11.5189 5.37514 11.5977 5.23684 11.736C5.09853 11.8743 5.01973 12.0612 5.01723 12.2567C5.01472 12.4523 5.08872 12.6411 5.22343 12.7829L7.51187 15.0714C6.61093 15.3695 5.73718 15.2954 4.98624 14.8407ZM18.9841 13.8826C17.7278 14.6429 16.2512 14.701 14.7512 14.0701L19.7847 9.03573C19.9194 8.89393 19.9934 8.70512 19.9909 8.50955C19.9884 8.31398 19.9096 8.12712 19.7713 7.98882C19.633 7.85052 19.4461 7.77172 19.2505 7.76921C19.055 7.76671 18.8662 7.8407 18.7244 7.97542L13.69 13.0032C13.0562 11.5032 13.1134 10.0257 13.8775 8.77042C15.1844 6.61417 18.2837 5.41229 22.2522 5.50511C22.3422 9.47261 21.1422 12.5757 18.9841 13.8826Z" fill="#7A2BF7"/>
</svg>
