<svg width="14" height="22" viewBox="0 0 14 22" fill="none" xmlns="http://www.w3.org/2000/svg">
<path d="M9.23828 10.2373H7.73828V4.2373H8.48828C9.28393 4.2373 10.047 4.55338 10.6096 5.11598C11.1722 5.67859 11.4883 6.44166 11.4883 7.2373C11.4883 7.43622 11.5673 7.62698 11.708 7.76763C11.8486 7.90829 12.0394 7.9873 12.2383 7.9873C12.4372 7.9873 12.628 7.90829 12.7686 7.76763C12.9093 7.62698 12.9883 7.43622 12.9883 7.2373C12.987 6.04421 12.5125 4.90034 11.6689 4.05669C10.8252 3.21305 9.68137 2.73855 8.48828 2.7373H7.73828V1.2373C7.73828 1.03839 7.65926 0.847627 7.51861 0.706975C7.37796 0.566322 7.18719 0.487305 6.98828 0.487305C6.78937 0.487305 6.5986 0.566322 6.45795 0.706975C6.3173 0.847627 6.23828 1.03839 6.23828 1.2373V2.7373H5.48828C4.29481 2.7373 3.15021 3.21141 2.3063 4.05532C1.46239 4.89924 0.988281 6.04383 0.988281 7.2373C0.988281 8.43078 1.46239 9.57537 2.3063 10.4193C3.15021 11.2632 4.29481 11.7373 5.48828 11.7373H6.23828V17.7373H4.73828C3.94263 17.7373 3.17957 17.4212 2.61696 16.8586C2.05435 16.296 1.73828 15.533 1.73828 14.7373C1.73828 14.5384 1.65926 14.3476 1.51861 14.207C1.37796 14.0663 1.18719 13.9873 0.988281 13.9873C0.789369 13.9873 0.598604 14.0663 0.457951 14.207C0.317299 14.3476 0.238281 14.5384 0.238281 14.7373C0.239522 15.9304 0.714026 17.0743 1.55767 17.9179C2.40132 18.7616 3.54519 19.2361 4.73828 19.2373H6.23828V20.7373C6.23828 20.9362 6.3173 21.127 6.45795 21.2676C6.5986 21.4083 6.78937 21.4873 6.98828 21.4873C7.18719 21.4873 7.37796 21.4083 7.51861 21.2676C7.65926 21.127 7.73828 20.9362 7.73828 20.7373V19.2373H9.23828C10.4318 19.2373 11.5763 18.7632 12.4203 17.9193C13.2642 17.0754 13.7383 15.9308 13.7383 14.7373C13.7383 13.5438 13.2642 12.3992 12.4203 11.5553C11.5763 10.7114 10.4318 10.2373 9.23828 10.2373ZM5.48828 10.2373C4.69263 10.2373 3.92957 9.92123 3.36696 9.35863C2.80435 8.79602 2.48828 8.03295 2.48828 7.2373C2.48828 6.44166 2.80435 5.67859 3.36696 5.11598C3.92957 4.55338 4.69263 4.2373 5.48828 4.2373H6.23828V10.2373H5.48828ZM9.23828 17.7373H7.73828V11.7373H9.23828C10.0339 11.7373 10.797 12.0534 11.3596 12.616C11.9222 13.1786 12.2383 13.9417 12.2383 14.7373C12.2383 15.533 11.9222 16.296 11.3596 16.8586C10.797 17.4212 10.0339 17.7373 9.23828 17.7373Z" fill="black"/>
</svg>
