<svg width="19" height="19" viewBox="0 0 19 19" fill="none" xmlns="http://www.w3.org/2000/svg">
<path d="M4.1137 12.2373C3.44619 12.2373 2.79366 12.4352 2.23865 12.8061C1.68363 13.1769 1.25105 13.704 0.995605 14.3207C0.740159 14.9374 0.673323 15.616 0.803548 16.2707C0.933773 16.9254 1.25521 17.5268 1.72721 17.9988C2.19922 18.4708 2.80058 18.7922 3.45527 18.9225C4.10995 19.0527 4.78855 18.9858 5.40525 18.7304C6.02196 18.475 6.54906 18.0424 6.91991 17.4874C7.29076 16.9323 7.4887 16.2798 7.4887 15.6123C7.4887 14.7172 7.13312 13.8588 6.50018 13.2258C5.86725 12.5929 5.0088 12.2373 4.1137 12.2373ZM4.1137 17.4873C3.74286 17.4873 3.38035 17.3773 3.072 17.1713C2.76366 16.9653 2.52334 16.6724 2.38142 16.3298C2.23951 15.9872 2.20238 15.6102 2.27473 15.2465C2.34707 14.8828 2.52565 14.5487 2.78787 14.2865C3.0501 14.0243 3.38419 13.8457 3.7479 13.7733C4.11162 13.701 4.48862 13.7381 4.83123 13.88C5.17384 14.0219 5.46668 14.2623 5.6727 14.5706C5.87873 14.879 5.9887 15.2415 5.9887 15.6123C5.9887 15.8585 5.9402 16.1024 5.84597 16.3298C5.75174 16.5573 5.61363 16.764 5.43952 16.9381C5.26541 17.1122 5.05872 17.2504 4.83123 17.3446C4.60374 17.4388 4.35993 17.4873 4.1137 17.4873ZM0.958073 7.95668L2.30339 6.6123L0.958073 5.26793C0.817343 5.1272 0.738281 4.93633 0.738281 4.7373C0.738281 4.53828 0.817343 4.34741 0.958073 4.20668C1.0988 4.06595 1.28968 3.98689 1.4887 3.98689C1.68772 3.98689 1.87859 4.06595 2.01932 4.20668L3.3637 5.55199L4.70807 4.20668C4.8488 4.06595 5.03968 3.98689 5.2387 3.98689C5.43772 3.98689 5.62859 4.06595 5.76932 4.20668C5.91005 4.34741 5.98912 4.53828 5.98912 4.7373C5.98912 4.93633 5.91005 5.1272 5.76932 5.26793L4.42401 6.6123L5.76932 7.95668C5.91005 8.09741 5.98912 8.28828 5.98912 8.4873C5.98912 8.68633 5.91005 8.8772 5.76932 9.01793C5.62859 9.15866 5.43772 9.23772 5.2387 9.23772C5.03968 9.23772 4.8488 9.15866 4.70807 9.01793L3.3637 7.67262L2.01932 9.01793C1.87859 9.15866 1.68772 9.23772 1.4887 9.23772C1.28968 9.23772 1.0988 9.15866 0.958073 9.01793C0.817343 8.8772 0.738281 8.68633 0.738281 8.4873C0.738281 8.28828 0.817343 8.09741 0.958073 7.95668ZM18.5193 16.9567C18.589 17.0264 18.6443 17.1091 18.682 17.2001C18.7197 17.2912 18.7391 17.3888 18.7391 17.4873C18.7391 17.5859 18.7197 17.6834 18.682 17.7745C18.6443 17.8655 18.589 17.9482 18.5193 18.0179C18.4496 18.0876 18.3669 18.1429 18.2759 18.1806C18.1848 18.2183 18.0872 18.2377 17.9887 18.2377C17.8902 18.2377 17.7926 18.2183 17.7015 18.1806C17.6105 18.1429 17.5278 18.0876 17.4581 18.0179L16.1137 16.6726L14.7693 18.0179C14.6286 18.1587 14.4377 18.2377 14.2387 18.2377C14.0397 18.2377 13.8488 18.1587 13.7081 18.0179C13.5673 17.8772 13.4883 17.6863 13.4883 17.4873C13.4883 17.2883 13.5673 17.0974 13.7081 16.9567L15.0534 15.6123L13.7081 14.2679C13.5673 14.1272 13.4883 13.9363 13.4883 13.7373C13.4883 13.5383 13.5673 13.3474 13.7081 13.2067C13.8488 13.0659 14.0397 12.9869 14.2387 12.9869C14.4377 12.9869 14.6286 13.0659 14.7693 13.2067L16.1137 14.552L17.4581 13.2067C17.5988 13.0659 17.7897 12.9869 17.9887 12.9869C18.1877 12.9869 18.3786 13.0659 18.5193 13.2067C18.6601 13.3474 18.7391 13.5383 18.7391 13.7373C18.7391 13.9363 18.6601 14.1272 18.5193 14.2679L17.174 15.6123L18.5193 16.9567ZM14.2828 8.56512C13.7034 10.6586 11.909 12.4679 9.92057 12.9648C9.86107 12.9796 9.80001 12.9871 9.7387 12.9873C9.55581 12.987 9.37935 12.9198 9.24251 12.7985C9.10567 12.6772 9.01788 12.51 8.99565 12.3285C8.97342 12.1469 9.01828 11.9635 9.1218 11.8128C9.22532 11.662 9.38036 11.5543 9.55776 11.5098C11.0231 11.1432 12.4031 9.73699 12.839 8.1648C13.1381 7.08668 13.1409 5.44605 11.4599 3.76793L11.2387 3.54762V5.4873C11.2387 5.68622 11.1597 5.87698 11.019 6.01763C10.8784 6.15829 10.6876 6.2373 10.4887 6.2373C10.2898 6.2373 10.099 6.15829 9.95837 6.01763C9.81772 5.87698 9.7387 5.68622 9.7387 5.4873V1.7373C9.7387 1.53839 9.81772 1.34763 9.95837 1.20697C10.099 1.06632 10.2898 0.987305 10.4887 0.987305H14.2387C14.4376 0.987305 14.6284 1.06632 14.769 1.20697C14.9097 1.34763 14.9887 1.53839 14.9887 1.7373C14.9887 1.93622 14.9097 2.12698 14.769 2.26763C14.6284 2.40829 14.4376 2.4873 14.2387 2.4873H12.299L12.5193 2.70668C14.2293 4.41762 14.8556 6.49793 14.2828 8.56512Z" fill="black"/>
</svg>
