<svg width="25" height="25" viewBox="0 0 25 25" fill="none" xmlns="http://www.w3.org/2000/svg">
<path d="M22.2539 11.5029H21.472C21.2921 9.38366 20.3684 7.39631 18.8645 5.89236C17.3605 4.38842 15.3732 3.46478 13.2539 3.2848V2.50293C13.2539 2.30402 13.1749 2.11325 13.0342 1.9726C12.8936 1.83195 12.7028 1.75293 12.5039 1.75293C12.305 1.75293 12.1142 1.83195 11.9736 1.9726C11.8329 2.11325 11.7539 2.30402 11.7539 2.50293V3.2848C9.63463 3.46478 7.64728 4.38842 6.14334 5.89236C4.63939 7.39631 3.71576 9.38366 3.53578 11.5029H2.75391C2.55499 11.5029 2.36423 11.5819 2.22358 11.7226C2.08292 11.8633 2.00391 12.054 2.00391 12.2529C2.00391 12.4518 2.08292 12.6426 2.22358 12.7833C2.36423 12.9239 2.55499 13.0029 2.75391 13.0029H3.53578C3.71576 15.1222 4.63939 17.1096 6.14334 18.6135C7.64728 20.1174 9.63463 21.0411 11.7539 21.2211V22.0029C11.7539 22.2018 11.8329 22.3926 11.9736 22.5333C12.1142 22.6739 12.305 22.7529 12.5039 22.7529C12.7028 22.7529 12.8936 22.6739 13.0342 22.5333C13.1749 22.3926 13.2539 22.2018 13.2539 22.0029V21.2211C15.3732 21.0411 17.3605 20.1174 18.8645 18.6135C20.3684 17.1096 21.2921 15.1222 21.472 13.0029H22.2539C22.4528 13.0029 22.6436 12.9239 22.7842 12.7833C22.9249 12.6426 23.0039 12.4518 23.0039 12.2529C23.0039 12.054 22.9249 11.8633 22.7842 11.7226C22.6436 11.5819 22.4528 11.5029 22.2539 11.5029ZM13.2539 19.7154V19.0029C13.2539 18.804 13.1749 18.6133 13.0342 18.4726C12.8936 18.3319 12.7028 18.2529 12.5039 18.2529C12.305 18.2529 12.1142 18.3319 11.9736 18.4726C11.8329 18.6133 11.7539 18.804 11.7539 19.0029V19.7154C10.0335 19.5399 8.42626 18.7763 7.20341 17.5534C5.98057 16.3306 5.21695 14.7234 5.04141 13.0029H5.75391C5.95282 13.0029 6.14358 12.9239 6.28424 12.7833C6.42489 12.6426 6.50391 12.4518 6.50391 12.2529C6.50391 12.054 6.42489 11.8633 6.28424 11.7226C6.14358 11.5819 5.95282 11.5029 5.75391 11.5029H5.04141C5.21695 9.7825 5.98057 8.17528 7.20341 6.95243C8.42626 5.72959 10.0335 4.96598 11.7539 4.79043V5.50293C11.7539 5.70184 11.8329 5.89261 11.9736 6.03326C12.1142 6.17391 12.305 6.25293 12.5039 6.25293C12.7028 6.25293 12.8936 6.17391 13.0342 6.03326C13.1749 5.89261 13.2539 5.70184 13.2539 5.50293V4.79043C14.9743 4.96598 16.5816 5.72959 17.8044 6.95243C19.0272 8.17528 19.7909 9.7825 19.9664 11.5029H19.2539C19.055 11.5029 18.8642 11.5819 18.7236 11.7226C18.5829 11.8633 18.5039 12.054 18.5039 12.2529C18.5039 12.4518 18.5829 12.6426 18.7236 12.7833C18.8642 12.9239 19.055 13.0029 19.2539 13.0029H19.9664C19.7909 14.7234 19.0272 16.3306 17.8044 17.5534C16.5816 18.7763 14.9743 19.5399 13.2539 19.7154ZM12.5039 8.50293C11.7622 8.50293 11.0372 8.72286 10.4205 9.13492C9.80383 9.54697 9.32319 10.1326 9.03936 10.8179C8.75553 11.5031 8.68127 12.2571 8.82596 12.9845C8.97066 13.7119 9.32781 14.3801 9.85226 14.9046C10.3767 15.429 11.0449 15.7862 11.7723 15.9309C12.4997 16.0756 13.2537 16.0013 13.939 15.7175C14.6242 15.4337 15.2099 14.953 15.6219 14.3363C16.034 13.7196 16.2539 12.9946 16.2539 12.2529C16.2539 11.2584 15.8588 10.3045 15.1556 9.60128C14.4523 8.89802 13.4985 8.50293 12.5039 8.50293ZM12.5039 14.5029C12.0589 14.5029 11.6239 14.371 11.2539 14.1237C10.8839 13.8765 10.5955 13.5251 10.4252 13.114C10.2549 12.7028 10.2103 12.2504 10.2971 11.814C10.384 11.3775 10.5982 10.9766 10.9129 10.6619C11.2276 10.3473 11.6285 10.133 12.065 10.0462C12.5014 9.95935 12.9538 10.0039 13.3649 10.1742C13.7761 10.3445 14.1275 10.6329 14.3747 11.0029C14.6219 11.3729 14.7539 11.8079 14.7539 12.2529C14.7539 12.8497 14.5169 13.422 14.0949 13.8439C13.6729 14.2659 13.1006 14.5029 12.5039 14.5029Z" fill="#7A2BF7"/>
</svg>
