<?xml version="1.0" encoding="UTF-8"?>
<svg version="1.1" xmlns="http://www.w3.org/2000/svg" width="538" height="200">
<path d="M0 0 C3.89543877 -0.14553599 7.79017651 -0.23415059 11.6875 -0.3125 C13.34168945 -0.3753418 13.34168945 -0.3753418 15.02929688 -0.43945312 C23.18878064 -0.56270817 23.18878064 -0.56270817 26.89453125 2.0078125 C27.93673828 3.48894531 27.93673828 3.48894531 29 5 C29.45334717 5.5969165 29.90669434 6.19383301 30.3737793 6.80883789 C31.9603665 8.9057958 33.48256839 11.04002503 35 13.1875 C36.15478982 14.8048004 37.30974231 16.42198465 38.46484375 18.0390625 C39.05120605 18.8630957 39.63756836 19.68712891 40.24169922 20.53613281 C42.46031321 23.64502651 44.70109767 26.73748754 46.94335938 29.8293457 C52.1782747 37.04945585 57.35090217 44.31063994 62.48071289 51.60571289 C66.64529331 57.51948541 70.87801015 63.3822379 75.12255859 69.23876953 C79.50794054 75.29792101 83.83262008 81.3983033 88.13085938 87.51953125 C88.82791992 88.51146484 88.82791992 88.51146484 89.5390625 89.5234375 C90.14548584 90.388479 90.14548584 90.388479 90.76416016 91.27099609 C92.14519571 93.20313631 93.57502526 95.10003369 95 97 C95.33 64.99 95.66 32.98 96 0 C104.25 0 112.5 0 121 0 C121.09259118 18.16734501 121.16397592 36.33460907 121.20724869 54.50213909 C121.22787494 62.9376243 121.25599664 71.37296022 121.30175781 79.80834961 C121.34162377 87.16054869 121.36743236 94.51263965 121.37635398 101.8649438 C121.38156918 105.75807218 121.39382776 109.65089126 121.42292023 113.54392052 C121.45008577 117.2088153 121.45844286 120.8732736 121.45243073 124.53825951 C121.45405455 126.5233352 121.47557144 128.50836342 121.49768066 130.49331665 C121.49218201 131.67817154 121.48668335 132.86302643 121.48101807 134.08378601 C121.48470524 135.11158519 121.48839241 136.13938437 121.49219131 137.19832897 C120.86496482 140.76865263 119.52064645 142.43811041 117 145 C110.34392799 147.21869067 102.76141805 148.33478672 96 146 C90.61239072 141.94294947 87.07545525 135.98493744 83.50488281 130.359375 C81.79421671 127.67737027 79.96310983 125.10959936 78.08886719 122.54077148 C76.86667849 120.86358051 75.67003599 119.17036986 74.4765625 117.47265625 C71.80477675 113.69926937 69.03330293 110.00405296 66.25 106.3125 C61.84080763 100.46227882 57.46709288 94.58771971 53.125 88.6875 C52.54661377 87.90197754 51.96822754 87.11645508 51.37231445 86.30712891 C48.30215027 82.13523523 45.23715354 77.95959896 42.17578125 73.78125 C41.54978027 72.92829346 40.9237793 72.07533691 40.27880859 71.1965332 C39.08607905 69.5712771 37.89489785 67.9448831 36.70556641 66.31713867 C36.16206543 65.5769751 35.61856445 64.83681152 35.05859375 64.07421875 C34.58736084 63.43057373 34.11612793 62.78692871 33.63061523 62.1237793 C31.50193927 59.35130555 29.23770521 56.68524625 27 54 C26.67 84.36 26.34 114.72 26 146 C17.75 146 9.5 146 1 146 C-0.70866697 144.29133303 -0.1468174 142.06908162 -0.16494751 139.73252869 C-0.17618149 138.5899762 -0.18741547 137.44742371 -0.19898987 136.27024841 C-0.20631638 135.00536087 -0.21364288 133.74047333 -0.22119141 132.43725586 C-0.23240157 131.10034845 -0.24403357 129.76344452 -0.25605774 128.42654419 C-0.28747257 124.78364582 -0.31255339 121.14072869 -0.3362546 117.49777293 C-0.35664803 114.45641794 -0.38020025 111.41509094 -0.40379179 108.37375933 C-0.45948565 101.19296659 -0.51018738 94.01215059 -0.55761719 86.83129883 C-0.60656002 79.43156055 -0.6628714 72.03190559 -0.72303832 64.63225073 C-0.77449634 58.27804395 -0.82180711 51.92381585 -0.86572587 45.56955248 C-0.89196198 41.77538558 -0.91963631 37.98124411 -0.9510994 34.18711662 C-0.98052047 30.61262046 -1.00471676 27.03812515 -1.02499962 23.46356583 C-1.0371767 21.53516902 -1.05452935 19.60680704 -1.07206726 17.67845154 C-1.10093548 11.68072068 -0.93408388 5.92794135 0 0 Z " fill="#000000" transform="translate(4,4)"/>
<path d="M0 0 C0.598125 0.5775 1.19625 1.155 1.8125 1.75 C2.4725 -0.23 3.1325 -2.21 3.8125 -4.25 C12.0625 -4.25 20.3125 -4.25 28.8125 -4.25 C28.88048505 9.45927161 28.93543659 23.16842984 28.96793652 36.87783241 C28.98354088 43.24479093 29.00468312 49.61162735 29.03881836 55.97851562 C29.07159888 62.13177045 29.08939227 68.2849084 29.09713173 74.43824387 C29.10264183 76.77678642 29.11340099 79.11532314 29.12969017 81.45381546 C29.25523765 100.23774769 29.17242575 120.04325363 15.5 134.75 C8.92849173 140.57173887 1.29246524 144.5631444 -7.1875 146.75 C-7.89132812 146.93433594 -8.59515625 147.11867187 -9.3203125 147.30859375 C-25.70054602 149.83034632 -42.24978798 148.05651024 -56.1875 138.75 C-63.04689065 133.60545702 -67.9609142 125.64493473 -69.7109375 117.234375 C-69.9013267 115.4092647 -70.04940114 113.57980993 -70.1875 111.75 C-70.8475 111.42 -71.5075 111.09 -72.1875 110.75 C-70.1875 108.75 -70.1875 108.75 -67.84912109 108.52294922 C-66.89602051 108.53342285 -65.94291992 108.54389648 -64.9609375 108.5546875 C-63.9296875 108.56113281 -62.8984375 108.56757813 -61.8359375 108.57421875 C-60.21558594 108.59935547 -60.21558594 108.59935547 -58.5625 108.625 C-57.47453125 108.63402344 -56.3865625 108.64304687 -55.265625 108.65234375 C-52.57269848 108.67596591 -49.88020745 108.70890444 -47.1875 108.75 C-46.67703125 109.85408203 -46.67703125 109.85408203 -46.15625 110.98046875 C-42.90464998 117.52690814 -40.06169107 121.88343449 -33.1875 124.75 C-25.13427327 127.33853716 -15.86607319 126.54222703 -8.27734375 123 C-2.53324585 119.56427789 -0.36015828 114.69873027 1.3203125 108.49609375 C2.14214002 103.91081799 2.05057218 99.38799877 1.8125 94.75 C1.23242188 95.15992188 0.65234375 95.56984375 0.0546875 95.9921875 C-0.72648437 96.53101563 -1.50765625 97.06984375 -2.3125 97.625 C-3.07820313 98.15867187 -3.84390625 98.69234375 -4.6328125 99.2421875 C-13.79680849 104.65090685 -25.90680657 104.72555387 -36.1171875 102.65625 C-50.08268965 98.53411705 -60.82869958 90.17310047 -67.94140625 77.3984375 C-75.35291224 61.64608309 -76.78070606 43.3177543 -71.1875 26.75 C-66.36902274 14.42581778 -57.81085784 3.60995664 -45.8515625 -2.4296875 C-31.10610471 -8.80233014 -13.58343056 -9.58830392 0 0 Z M-41.1875 24.75 C-47.83257614 34.42678197 -49.11204999 44.18727359 -48.1875 55.75 C-46.61789075 63.83301768 -43.5700982 70.40972127 -37.1875 75.75 C-29.77831883 80.42159768 -22.88192293 81.51325087 -14.1875 80.75 C-7.54467235 78.99423579 -3.00764532 74.29437307 0.8125 68.75 C3.64420678 62.93918252 3.18456354 56.88033673 3.18310547 50.56762695 C3.18746645 48.45376237 3.22378866 46.34200979 3.26171875 44.22851562 C3.33688982 35.41643372 2.79158338 29.37346935 -3.1171875 22.5078125 C-9.40724938 17.22820233 -14.34370856 15.29312019 -22.6015625 15.50390625 C-30.14476939 16.22176431 -36.18891874 19.00350134 -41.1875 24.75 Z " fill="#000000" transform="translate(468.1875,45.25)"/>
<path d="M0 0 C11.15742386 9.11904834 17.55384277 22.40608324 19.84375 36.47265625 C21.4704566 54.48506156 18.95846028 71.43634018 7.80859375 86.16015625 C0.1455742 95.24225349 -9.49927784 100.99503234 -21.15625 103.47265625 C-24.52806017 103.71704398 -27.9014418 103.70377464 -31.28125 103.72265625 C-32.18101562 103.74328125 -33.08078125 103.76390625 -34.0078125 103.78515625 C-46.87451465 103.85910281 -58.61346111 99.10704134 -67.96875 90.22265625 C-81.94786812 75.26999241 -83.80182951 57.7132058 -83.28369141 38.16064453 C-82.66587641 25.12971908 -76.30645668 12.85822188 -67.38671875 3.47265625 C-60.90798461 -2.33664651 -53.61123481 -6.45347955 -45.15625 -8.52734375 C-44.41375 -8.71039063 -43.67125 -8.8934375 -42.90625 -9.08203125 C-27.75970745 -11.53473842 -12.62567285 -8.94318493 0 0 Z M-50.55078125 20.2421875 C-58.33692089 31.05942773 -59.711929 44.72210128 -57.66015625 57.58203125 C-55.23770176 67.27184921 -51.82396904 74.1274817 -43.14453125 79.37890625 C-37.06985463 82.72057512 -29.38718072 82.52870732 -22.69921875 80.859375 C-15.53441881 77.65146655 -10.78269595 71.50350153 -7.78125 64.41015625 C-6.36190359 60.42506825 -5.45909222 56.71244734 -5.15625 52.47265625 C-5.1046875 51.75980469 -5.053125 51.04695313 -5 50.3125 C-4.56382127 39.13542008 -6.66382886 28.04063176 -14.15625 19.47265625 C-19.24142176 14.13782489 -24.27591942 12.40033271 -31.53125 12.16015625 C-39.47833844 12.35398768 -45.06930907 14.35932606 -50.55078125 20.2421875 Z " fill="#000000" transform="translate(222.15625,48.52734375)"/>
<path d="M0 0 C3.89543877 -0.14553599 7.79017651 -0.23415059 11.6875 -0.3125 C13.34168945 -0.3753418 13.34168945 -0.3753418 15.02929688 -0.43945312 C16.6293457 -0.46362305 16.6293457 -0.46362305 18.26171875 -0.48828125 C19.24100342 -0.51446533 20.22028809 -0.54064941 21.22924805 -0.56762695 C25.20619531 0.24710583 26.51274405 1.81808642 29 5 C30.40228018 7.81484692 31.41597571 10.71382376 32.41796875 13.69140625 C32.71717224 14.54191055 33.01637573 15.39241486 33.324646 16.26869202 C34.29233343 19.02882542 35.23993143 21.79540278 36.1875 24.5625 C36.84890866 26.45997282 37.51175827 28.35694395 38.17602539 30.25341797 C39.50213878 34.04415272 40.82132076 37.83718207 42.13476562 41.63232422 C44.68249752 48.98231816 47.30866221 56.30372329 49.9375 63.625 C50.73872089 65.86703044 51.53955366 68.10919964 52.33984375 70.3515625 C52.89320245 71.90105121 53.44658288 73.45053216 54 75 C57.25850104 67.12138318 60.11745611 59.12669837 62.9140625 51.07421875 C63.37414908 49.75519407 63.83447052 48.43625129 64.29501343 47.11738586 C65.49622096 43.67594885 66.69493072 40.23364787 67.8928833 36.79107666 C69.81609978 31.26513618 71.74242931 25.7402824 73.67017746 20.2159214 C74.33927281 18.29696541 75.00683117 16.37747988 75.67422485 14.45793152 C76.2852858 12.7050457 76.2852858 12.7050457 76.90869141 10.91674805 C77.26524811 9.8921196 77.62180481 8.86749115 77.98916626 7.81181335 C78.93324037 5.18570376 79.9635786 2.59105349 81 0 C89.58 0 98.16 0 107 0 C106.23286482 5.36994624 105.24980954 9.54281429 103.2890625 14.45703125 C103.00898849 15.17742081 102.72891449 15.89781036 102.44035339 16.64002991 C101.50847985 19.03347836 100.56661566 21.42286943 99.625 23.8125 C98.26372105 27.2995346 96.90758653 30.78856646 95.55078125 34.27734375 C95.01081764 35.66243134 95.01081764 35.66243134 94.45994568 37.07550049 C91.5717439 44.49461474 88.73600935 51.93288702 85.91796875 59.37890625 C85.49294067 60.50152359 85.0679126 61.62414093 84.63000488 62.78077698 C82.94066967 67.24481995 81.25233669 71.70923549 79.56744385 76.17495728 C78.38706614 79.30239391 77.20353723 82.42862303 76.01953125 85.5546875 C75.67214401 86.47822525 75.32475677 87.401763 74.96684265 88.35328674 C73.36090688 92.58739625 71.70863065 96.79784175 69.9362793 100.96533203 C69.63610397 101.67158722 69.33592865 102.37784241 69.0266571 103.10549927 C67.20531233 106.46644519 65.6384022 107.78719927 62 109 C60.37280518 109.08143855 58.74248281 109.1075302 57.11328125 109.09765625 C56.17548828 109.09443359 55.23769531 109.09121094 54.27148438 109.08789062 C52.80678711 109.07532227 52.80678711 109.07532227 51.3125 109.0625 C50.32443359 109.05798828 49.33636719 109.05347656 48.31835938 109.04882812 C45.87884526 109.03704303 43.43945311 109.02059011 41 109 C37.21873517 100.09456222 33.68859834 91.10432078 30.25 82.0625 C29.69595527 80.60950988 29.14183515 79.15654851 28.58764648 77.70361328 C21.64241748 59.47974168 14.75077159 41.23523096 7.87939453 22.98339844 C6.64785445 19.71308899 5.40891343 16.4457424 4.16357422 13.18066406 C3.88082138 12.43595856 3.59806854 11.69125305 3.30674744 10.92398071 C2.78135112 9.54030951 2.25347867 8.15757498 1.72267151 6.77597046 C0 2.22571048 0 2.22571048 0 0 Z " fill="#000000" transform="translate(241,41)"/>
<path d="M0 0 C1.42179565 0.03927612 1.42179565 0.03927612 2.87231445 0.0793457 C4.41435547 0.10351562 4.41435547 0.10351562 5.98754883 0.12817383 C7.0594043 0.17006836 8.13125977 0.21196289 9.2355957 0.25512695 C10.31905273 0.27768555 11.40250977 0.30024414 12.51879883 0.32348633 C15.19661475 0.38246906 17.87166597 0.46472388 20.5480957 0.56762695 C20.64149979 14.33643104 20.71178963 28.10518607 20.75534439 41.87424183 C20.7762454 48.26734698 20.80460933 54.66023975 20.84985352 61.05322266 C20.89322095 67.21940392 20.91721386 73.38538053 20.92760468 79.5517025 C20.93501238 81.90772411 20.9494773 84.26373416 20.97101593 86.61966896 C20.99992823 89.91222221 21.00405672 93.20392288 21.00219727 96.49658203 C21.02376892 97.96717072 21.02376892 97.96717072 21.04577637 99.46746826 C21.04027771 100.36349258 21.03477905 101.25951691 21.02911377 102.18269348 C21.03280094 102.96160855 21.03648811 103.74052362 21.04028702 104.54304218 C20.5480957 106.56762695 20.5480957 106.56762695 18.66689682 108.32039928 C16.09421851 109.83480077 14.53289147 109.9149098 11.5637207 109.8605957 C10.62915039 109.85092773 9.69458008 109.84125977 8.73168945 109.83129883 C7.76360352 109.80616211 6.79551758 109.78102539 5.7980957 109.75512695 C4.81454102 109.7415918 3.83098633 109.72805664 2.81762695 109.71411133 C0.39389156 109.67881421 -2.02872575 109.62950749 -4.4519043 109.56762695 C-5.70028305 104.72248038 -5.60686734 99.95820242 -5.61303711 94.99145508 C-5.61800201 94.03315292 -5.62296692 93.07485077 -5.62808228 92.08750916 C-5.64266091 88.92462441 -5.64949737 85.76178975 -5.6550293 82.59887695 C-5.66078258 80.3983968 -5.66654029 78.19791666 -5.67230225 75.99743652 C-5.6827988 71.38753018 -5.68865084 66.77764122 -5.69213867 62.16772461 C-5.69763237 56.25945405 -5.72168486 50.3514129 -5.75011063 44.44321442 C-5.76872423 39.89991582 -5.77394184 35.35667275 -5.77547455 30.81333923 C-5.77850253 28.63482911 -5.78653591 26.45631999 -5.79965973 24.27784729 C-5.81669949 21.23298573 -5.81484536 18.18868862 -5.80834961 15.14379883 C-5.81756439 14.24390732 -5.82677917 13.34401581 -5.83627319 12.41685486 C-5.83070404 11.58420609 -5.82513489 10.75155731 -5.81939697 9.89367676 C-5.82086353 9.17471977 -5.82233009 8.45576279 -5.82384109 7.71501923 C-5.14944263 3.82135217 -4.03292279 0.9336399 0 0 Z " fill="#000000" transform="translate(514.451904296875,40.432373046875)"/>
<path d="M0 0 C0.97839844 0.00837891 1.95679688 0.01675781 2.96484375 0.02539062 C4.49431641 0.06889648 4.49431641 0.06889648 6.0546875 0.11328125 C7.08207031 0.12294922 8.10945313 0.13261719 9.16796875 0.14257812 C16.76184712 0.25794087 16.76184712 0.25794087 17.9296875 1.42578125 C18.0302776 4.24854119 18.06584045 7.04686542 18.05908203 9.87011719 C18.06083435 10.75646347 18.06258667 11.64280975 18.06439209 12.55601501 C18.06881767 15.50741496 18.06586717 18.45875561 18.0625 21.41015625 C18.06317356 23.46266695 18.06414401 25.51517757 18.06539917 27.56768799 C18.06687767 31.88546503 18.06471936 36.20322145 18.06005859 40.52099609 C18.05440409 46.02494862 18.05761192 51.52885192 18.06363106 57.03280258 C18.06726939 61.28133505 18.06608241 65.52985614 18.06350327 69.77838898 C18.06284077 71.80513769 18.06363847 73.83188748 18.06598282 75.85863495 C18.08973937 102.20844534 18.08973937 102.20844534 16.9296875 107.42578125 C13.69464392 109.58247697 12.80777787 109.67411702 9.078125 109.65625 C8.14484375 109.65431641 7.2115625 109.65238281 6.25 109.65039062 C5.27804687 109.63814453 4.30609375 109.62589844 3.3046875 109.61328125 C2.325 109.61263672 1.3453125 109.61199219 0.3359375 109.61132812 C-6.93005226 109.56604149 -6.93005226 109.56604149 -8.0703125 108.42578125 C-8.17207041 107.08162094 -8.20548395 105.73219728 -8.21075439 104.38420105 C-8.21646454 103.513535 -8.22217468 102.64286896 -8.22805786 101.74581909 C-8.22917572 100.78322174 -8.23029358 99.82062439 -8.23144531 98.82885742 C-8.23641022 97.82076523 -8.24137512 96.81267303 -8.24649048 95.77403259 C-8.26115577 92.42226491 -8.26792165 89.07054456 -8.2734375 85.71875 C-8.27918574 83.39805601 -8.2849435 81.07736204 -8.29071045 78.75666809 C-8.30123314 73.883268 -8.30706737 69.00988447 -8.31054688 64.13647461 C-8.31603163 57.88496875 -8.34005411 51.63368069 -8.36851883 45.38224316 C-8.38712332 40.5859157 -8.39234966 35.78964091 -8.39388275 30.99328041 C-8.39691519 28.68834557 -8.4049635 26.38341178 -8.41806793 24.07851219 C-8.43508109 20.85580164 -8.4332595 17.63362564 -8.42675781 14.41088867 C-8.4359726 13.45436401 -8.44518738 12.49783936 -8.4546814 11.5123291 C-8.41389396 5.07377767 -8.41389396 5.07377767 -6.69454956 1.83108521 C-4.42984141 -0.12835988 -2.9669526 -0.04809407 0 0 Z " fill="#000000" transform="translate(364.0703125,40.57421875)"/>
<path d="M0 0 C3.39608063 1.69456784 5.43314212 4.0880982 7.4375 7.3125 C8.50152842 12.39619132 7.96481008 16.4696116 5.1875 20.875 C1.71657965 24.24675119 0.01732817 24.90154889 -4.875 25.375 C-9.17888253 25.27061479 -11.67949059 23.76709117 -15 21 C-17.38598167 17.42102749 -17.78579503 15.28409945 -18 11 C-16.82998751 7.16495907 -15.52222864 4.6171793 -12.9375 1.5625 C-8.61996952 -0.73405877 -4.78437123 -0.8879793 0 0 Z " fill="#000000" transform="translate(527,4)"/>
<path d="M0 0 C3.90584805 1.662063 5.33908861 3.16712757 7 7 C7.66 7.33 8.32 7.66 9 8 C8.97135632 14.31593147 7.87426476 18.01587342 3.5703125 22.6875 C0.10335918 25.58525202 -3.69815016 25.36456355 -8 25 C-12.87070677 22.56464662 -15.15569877 20.12305898 -17 15 C-17.58197698 11.00930069 -17.20642575 9.37598975 -15.25 5.8125 C-10.65564945 0.06956181 -7.26189526 -0.95960759 0 0 Z " fill="#010101" transform="translate(373,4)"/>
<path d="M0 0 C2 1 2 1 2 1 Z " fill="#FFFFFF" transform="translate(403,151)"/>
<path d="" fill="#FFFFFF" transform="translate(0,0)"/>
<path d="" fill="#FFFFFF" transform="translate(0,0)"/>
<path d="" fill="#FFFFFF" transform="translate(0,0)"/>
<path d="" fill="#FFFFFF" transform="translate(0,0)"/>
<path d="" fill="#FFFFFF" transform="translate(0,0)"/>
<path d="" fill="#FFFFFF" transform="translate(0,0)"/>
<path d="" fill="#FFFFFF" transform="translate(0,0)"/>
<path d="" fill="#FFFFFF" transform="translate(0,0)"/>
<path d="" fill="#FFFFFF" transform="translate(0,0)"/>
<path d="" fill="#FFFFFF" transform="translate(0,0)"/>
<path d="" fill="#FFFFFF" transform="translate(0,0)"/>
<path d="" fill="#FFFFFF" transform="translate(0,0)"/>
<path d="" fill="#FFFFFF" transform="translate(0,0)"/>
<path d="" fill="#FFFFFF" transform="translate(0,0)"/>
<path d="" fill="#FFFFFF" transform="translate(0,0)"/>
<path d="" fill="#FFFFFF" transform="translate(0,0)"/>
<path d="" fill="#FFFFFF" transform="translate(0,0)"/>
<path d="" fill="#FFFFFF" transform="translate(0,0)"/>
<path d="" fill="#FFFFFF" transform="translate(0,0)"/>
<path d="" fill="#FFFFFF" transform="translate(0,0)"/>
<path d="" fill="#FFFFFF" transform="translate(0,0)"/>
<path d="" fill="#FFFFFF" transform="translate(0,0)"/>
<path d="" fill="#FFFFFF" transform="translate(0,0)"/>
<path d="" fill="#FFFFFF" transform="translate(0,0)"/>
<path d="" fill="#FFFFFF" transform="translate(0,0)"/>
<path d="" fill="#FFFFFF" transform="translate(0,0)"/>
<path d="" fill="#FFFFFF" transform="translate(0,0)"/>
<path d="" fill="#FFFFFF" transform="translate(0,0)"/>
<path d="" fill="#FFFFFF" transform="translate(0,0)"/>
<path d="" fill="#FFFFFF" transform="translate(0,0)"/>
<path d="" fill="#FFFFFF" transform="translate(0,0)"/>
<path d="" fill="#FFFFFF" transform="translate(0,0)"/>
<path d="" fill="#FFFFFF" transform="translate(0,0)"/>
<path d="" fill="#FFFFFF" transform="translate(0,0)"/>
<path d="" fill="#FFFFFF" transform="translate(0,0)"/>
<path d="" fill="#FFFFFE" transform="translate(0,0)"/>
<path d="" fill="#FFFFFF" transform="translate(0,0)"/>
<path d="" fill="#FFFFFF" transform="translate(0,0)"/>
<path d="" fill="#FFFFFF" transform="translate(0,0)"/>
<path d="" fill="#FFFFFF" transform="translate(0,0)"/>
<path d="" fill="#FFFFFF" transform="translate(0,0)"/>
<path d="" fill="#FFFFFF" transform="translate(0,0)"/>
<path d="" fill="#FFFFFF" transform="translate(0,0)"/>
<path d="" fill="#FFFFFF" transform="translate(0,0)"/>
<path d="" fill="#FFFFFF" transform="translate(0,0)"/>
<path d="" fill="#FFFFFF" transform="translate(0,0)"/>
</svg>
