<?xml version="1.0" encoding="UTF-8"?>
<svg version="1.1" xmlns="http://www.w3.org/2000/svg" width="837" height="298">
<path d="M0 0 C36 0 36 0 42 4 C43.68408203 5.83666992 43.68408203 5.83666992 45.0078125 7.73046875 C45.513125 8.44203125 46.0184375 9.15359375 46.5390625 9.88671875 C47.32410156 11.02560547 47.32410156 11.02560547 48.125 12.1875 C48.68703125 12.98414063 49.2490625 13.78078125 49.828125 14.6015625 C51.56128016 17.0613993 53.28077542 19.53041484 55 22 C56.50810553 24.14302269 58.02017375 26.28320233 59.53271484 28.4230957 C60.51619454 29.81518584 61.49827704 31.20826405 62.47900391 32.60229492 C66.11248859 37.76432027 69.79614172 42.88829062 73.5 48 C80.24348241 57.30975489 86.86834937 66.70052336 93.47949219 76.10449219 C99.6433473 84.86878716 105.85741881 93.59275544 112.14428711 102.26928711 C115.79987855 107.32060026 119.41342704 112.39949079 123 117.5 C131.86229833 130.09951836 140.93982604 142.54226081 150 155 C150.33 103.85 150.66 52.7 151 0 C163.87 0 176.74 0 190 0 C190.09255541 28.71116979 190.16395773 57.42230371 190.20724869 86.13359261 C190.2278828 99.46445013 190.25601971 112.79518169 190.30175781 126.12597656 C190.34159943 137.74371365 190.36742664 149.36138243 190.37635398 160.97918594 C190.38157321 167.13198354 190.39385826 173.28458569 190.42292023 179.43732071 C190.45004684 185.227165 190.45845045 191.0167331 190.45243073 196.8066349 C190.45353218 198.93270556 190.46150226 201.05878535 190.4768219 203.1848011 C190.49670637 206.08636036 190.4919445 208.98687512 190.48101807 211.88845825 C190.49266943 212.73088078 190.5043208 213.5733033 190.51632524 214.44125378 C190.46221581 219.75271286 189.54875863 222.80063761 186 227 C176.83778933 232.78535254 161.25880978 232.12642671 151 230 C147.09472136 227.35541594 145.04764065 225.07119856 142.97753906 220.83984375 C141.03168964 217.17752575 138.40285055 213.94878183 135.9375 210.625 C134.82385052 209.07150854 133.71191932 207.5167841 132.6015625 205.9609375 C128.77257087 200.64632266 124.7998329 195.4463256 120.8125 190.25 C115.95470263 183.91511162 111.17680368 177.5471881 106.57641602 171.02319336 C103.06188683 166.04947096 99.41397191 161.18267305 95.74780273 156.32006836 C91.11988541 150.17678266 86.55855241 143.98575771 82.00317383 137.78857422 C78.83849968 133.48623196 75.65616569 129.19957929 72.4375 124.9375 C68.30325108 119.45064099 64.28829063 113.88104557 60.30639648 108.28295898 C54.39477815 100.03078725 48.17808832 92.07903857 42 84 C41.67 132.18 41.34 180.36 41 230 C27.47 230 13.94 230 0 230 C0 154.1 0 78.2 0 0 Z " fill="#000000" transform="translate(0,0)"/>
<path d="M0 0 C16.24840794 -0.62181927 32.37756414 4.55557944 44.78515625 15.16015625 C45.11515625 11.53015625 45.44515625 7.90015625 45.78515625 4.16015625 C51.32104158 4.1355085 56.85689525 4.11732129 62.39282227 4.10522461 C64.27759355 4.10018381 66.1623609 4.09335127 68.04711914 4.0847168 C70.75017261 4.07264008 73.45317456 4.06692557 76.15625 4.0625 C77.42812416 4.05475807 77.42812416 4.05475807 78.72569275 4.04685974 C80.74586693 4.0466643 82.76593559 4.09809414 84.78515625 4.16015625 C86.62814076 6.00314076 85.91947999 8.99350929 85.92559814 11.46128845 C85.92856927 12.12731238 85.93154039 12.79333632 85.93460155 13.47954279 C85.94332552 15.72848044 85.9448 17.97736509 85.94628906 20.22631836 C85.95091529 21.83270889 85.95593968 23.43909832 85.96133423 25.04548645 C85.97449464 29.42666097 85.98091233 33.80782012 85.98534489 38.18901134 C85.9882748 40.93146073 85.99237985 43.67390594 85.99684906 46.41635323 C86.01054462 55.01062022 86.02019648 63.60487764 86.02405095 72.19915479 C86.02851196 82.09076392 86.04595943 91.98223349 86.07505155 101.87380022 C86.09678356 109.53179066 86.10676163 117.18974222 86.10809207 124.84776312 C86.10913355 129.41358235 86.11489755 133.9792708 86.13291168 138.5450573 C86.1495883 142.85673049 86.15145466 147.16817748 86.14277267 151.47987175 C86.14201216 153.04778659 86.1462117 154.61571455 86.15623093 156.18359756 C86.30498107 180.95094467 81.33028453 205.52447156 63.78515625 224.16015625 C47.31177564 240.21799212 26.40220133 244.46886493 4.22265625 244.66015625 C3.18421066 244.67622925 3.18421066 244.67622925 2.12478638 244.69262695 C-11.32082968 244.85022775 -24.59308641 242.86414947 -36.58984375 236.41015625 C-37.24919922 236.06581543 -37.90855469 235.72147461 -38.58789062 235.36669922 C-53.4431499 227.36799326 -64.05328365 215.10025256 -69.25 198.94140625 C-70.5887896 193.91004813 -71.47120938 189.39303112 -71.21484375 184.16015625 C-70.21484375 183.16015625 -70.21484375 183.16015625 -66.70483398 183.04663086 C-65.14435953 183.04678999 -63.58387982 183.05248483 -62.0234375 183.0625 C-60.79367943 183.06462242 -60.79367943 183.06462242 -59.53907776 183.06678772 C-56.91012993 183.07240336 -54.28126602 183.08495846 -51.65234375 183.09765625 C-49.87435018 183.10266924 -48.09635529 183.10723249 -46.31835938 183.11132812 C-41.9504883 183.12237786 -37.58268027 183.13965294 -33.21484375 183.16015625 C-32.75376221 184.26584961 -32.29268066 185.37154297 -31.81762695 186.51074219 C-31.19656885 187.97219335 -30.57504351 189.43344602 -29.953125 190.89453125 C-29.65120239 191.6220459 -29.34927979 192.34956055 -29.03820801 193.09912109 C-25.72367867 200.83228975 -21.28236275 204.90984564 -13.71484375 208.53515625 C-0.99971404 213.07347947 13.90767358 212.03556673 26.09765625 206.59765625 C34.72691775 201.92770297 39.02381832 195.2382813 42.0078125 186.04296875 C44.42895879 177.06404432 45.08118335 168.43567206 44.78515625 159.16015625 C43.87765625 160.02640625 42.97015625 160.89265625 42.03515625 161.78515625 C27.67700867 173.98093221 9.80194837 175.36510095 -8.21484375 174.16015625 C-28.43148327 171.77236418 -45.0754261 161.41304624 -58.21484375 146.16015625 C-70.78254608 128.58250104 -76.37837135 109.65700312 -76.46484375 88.22265625 C-76.48546875 86.97935547 -76.50609375 85.73605469 -76.52734375 84.45507812 C-76.62432772 61.11831059 -67.80951095 38.55510778 -51.68408203 21.62207031 C-37.70588784 7.71355804 -19.31593708 1.39674325 0 0 Z M-21.21484375 47.16015625 C-21.7665625 47.68351562 -22.31828125 48.206875 -22.88671875 48.74609375 C-32.65131853 59.06435641 -36.02427349 73.26475031 -36.58984375 87.09765625 C-35.96009481 102.65770305 -32.25539967 116.74224368 -21.28125 128.2578125 C-11.90703812 136.88775803 -0.09899413 139.56427473 12.3671875 139.4375 C23.15682619 138.56199789 31.58767611 133.13435997 38.53515625 125.09765625 C46.23177426 114.27717883 46.4034957 102.401943 46.25170898 89.63891602 C46.22258735 86.96633301 46.23117478 84.29572309 46.24414062 81.62304688 C46.2284987 67.97320342 44.71392328 57.09915225 35.78515625 46.16015625 C26.56454615 37.79302411 17.05752396 35.37122875 4.859375 35.81640625 C-5.45939079 36.49703156 -13.76104923 40.03966149 -21.21484375 47.16015625 Z " fill="#000000" transform="translate(692.21484375,53.83984375)"/>
<path d="M0 0 C17.16600426 14.8229896 26.98251691 35.09264406 29.9296875 57.4921875 C30.24761573 62.3495597 30.31180017 67.18776502 30.3046875 72.0546875 C30.30381134 72.71382141 30.30293518 73.37295532 30.30203247 74.05206299 C30.19919017 97.56914351 23.49178745 120.98368184 6.9296875 138.4921875 C6.2696875 138.4921875 5.6096875 138.4921875 4.9296875 138.4921875 C4.9296875 139.1521875 4.9296875 139.8121875 4.9296875 140.4921875 C-1.11249491 146.20012152 -9.45858911 153.39232183 -17.80078125 155.02734375 C-18.54972656 155.18074219 -19.29867187 155.33414063 -20.0703125 155.4921875 C-20.4003125 156.1521875 -20.7303125 156.8121875 -21.0703125 157.4921875 C-23.546875 158.30859375 -23.546875 158.30859375 -26.6953125 159.0546875 C-27.71882813 159.30347656 -28.74234375 159.55226562 -29.796875 159.80859375 C-52.08356117 164.46273466 -75.07553978 162.12962343 -94.6953125 150.2421875 C-102.82149354 144.84818565 -110.15272137 138.263277 -116.0703125 130.4921875 C-116.56015625 129.85152344 -117.05 129.21085938 -117.5546875 128.55078125 C-132.54114061 107.57747187 -135.89267777 78.60989835 -132.30053711 53.62109375 C-128.56657811 31.89997419 -118.00544788 10.83417845 -100.0703125 -2.5078125 C-69.39397499 -22.65795577 -29.22615744 -23.87174692 0 0 Z M-81.0703125 30.4921875 C-93.36149255 45.37376679 -94.3567119 65.04200405 -93.0703125 83.4921875 C-91.5144396 95.86187573 -86.76642616 110.12313575 -77.0703125 118.4921875 C-66.76084229 125.64739146 -56.67969927 129.00406435 -44.140625 127.03125 C-33.30245349 124.68711621 -25.53137763 119.51176965 -19.0703125 110.4921875 C-8.68224033 94.14327169 -7.32403629 72.4062181 -10.8359375 53.69921875 C-11.64702772 50.19109555 -12.75810916 46.84761404 -14.0703125 43.4921875 C-14.52083984 42.32623047 -14.52083984 42.32623047 -14.98046875 41.13671875 C-15.87855585 39.12671429 -16.88094176 37.34364128 -18.0703125 35.4921875 C-18.53953125 34.75613281 -19.00875 34.02007812 -19.4921875 33.26171875 C-24.99776397 25.43593505 -32.76417897 19.90951243 -42.0703125 17.4921875 C-57.92806414 15.75363001 -69.9977475 18.44663788 -81.0703125 30.4921875 Z " fill="#000000" transform="translate(345.0703125,72.5078125)"/>
<path d="M0 0 C4.87464091 -0.07443657 9.74894728 -0.12873667 14.62402344 -0.16479492 C16.28065763 -0.17983465 17.93725231 -0.20027177 19.59375 -0.22631836 C21.9818703 -0.26291515 24.36946188 -0.27977439 26.7578125 -0.29296875 C27.85973434 -0.31619453 27.85973434 -0.31619453 28.98391724 -0.33988953 C34.81089059 -0.34177501 38.86566767 0.97258228 43.10546875 5 C45.89080617 9.41059616 47.54683422 14.10690304 49.3125 19 C49.90333374 20.60633301 49.90333374 20.60633301 50.50610352 22.24511719 C53.23429613 29.72152588 55.79704023 37.24549895 58.27587891 44.80761719 C64.72446492 64.41918369 71.98271625 83.77094055 79.06518555 103.16113281 C79.3125798 103.83929047 79.55997406 104.51744812 79.81486511 105.21615601 C80.48598627 107.05562463 81.15799995 108.89476754 81.83007812 110.73388672 C82.93163511 113.80914327 83.9803039 116.89675626 85 120 C86.90004592 117.14993112 87.89434424 114.80880552 89.03125 111.6015625 C89.4238501 110.4990918 89.8164502 109.39662109 90.22094727 108.26074219 C90.64303467 107.06094727 91.06512207 105.86115234 91.5 104.625 C91.95152131 103.3505079 92.40326715 102.07609532 92.85522461 100.80175781 C96.21001006 91.3232633 99.48374715 81.81725774 102.74267578 72.30541992 C107.75746913 57.7154392 112.94107388 43.18478684 118.11157227 28.64941406 C118.47002731 27.64042557 118.82848236 26.63143707 119.19779968 25.59187317 C119.86760166 23.70665142 120.5383448 21.82176363 121.21028137 19.93730164 C123.56191843 13.31640286 125.77690689 6.66927933 128 0 C141.53 0 155.06 0 169 0 C170 2 170 2 169.37252808 4.21362305 C169.01869049 5.13699463 168.66485291 6.06036621 168.30029297 7.01171875 C167.70167198 8.59067932 167.70167198 8.59067932 167.09095764 10.20153809 C166.64586349 11.35190552 166.20076935 12.50227295 165.7421875 13.6875 C165.2878685 14.8794397 164.8335495 16.07137939 164.36546326 17.29943848 C163.13326981 20.53184075 161.89173732 23.7605821 160.64847183 26.98873901 C159.35668059 30.34778742 158.07364306 33.71017521 156.78979492 37.07226562 C154.29710486 43.59620684 151.79550571 50.11669411 149.2913208 56.63623047 C147.62589257 60.97451474 145.96605884 65.31491829 144.30859375 69.65625 C142.82508795 73.54146317 141.34124625 77.42653372 139.85205078 81.30957031 C136.64980556 89.66198842 133.47392666 98.02414595 130.30859375 106.390625 C129.04042217 109.73938027 127.7720886 113.08807417 126.50375366 116.43676758 C125.68580894 118.5983094 124.86888666 120.76023847 124.0531311 122.92260742 C121.77463713 128.96211228 119.47779818 134.99396133 117.15063477 141.01489258 C116.36777458 143.04587742 115.59047445 145.07901226 114.81811523 147.11401367 C113.66191706 150.15084674 112.48238042 153.17763148 111.296875 156.203125 C110.95360168 157.11705017 110.61032837 158.03097534 110.25665283 158.97259521 C108.0433983 164.52999593 106.00717681 167.65462292 101 171 C97.36766898 172.21077701 94.04878013 172.12444164 90.26953125 172.09765625 C89.51911057 172.0962413 88.76868988 172.09482635 87.99552917 172.09336853 C85.6011454 172.0877756 83.20685547 172.07522444 80.8125 172.0625 C79.18815239 172.05748408 77.56380332 172.05292134 75.93945312 172.04882812 C71.95959931 172.03780848 67.97981556 172.02054873 64 172 C59.88424508 161.84124928 55.93387537 151.62846893 52.07788086 141.36849976 C47.78488677 129.9487176 43.46975613 118.5395257 39 107.1875 C34.76128203 96.41515647 30.66956672 85.5986537 26.71484375 74.71875 C19.81200441 55.75486264 12.63873357 36.9036631 5.34593201 18.08634949 C4.81991797 16.72759734 4.2961557 15.36797083 3.77490234 14.00738525 C3.2383812 12.61752673 2.69108775 11.23179665 2.13525391 9.84954834 C0.7383543 6.3079501 0 3.8580766 0 0 Z " fill="#000000" transform="translate(374,58)"/>
<path d="M0 0 C0.70365692 -0.00095673 1.40731384 -0.00191345 2.1322937 -0.00289917 C3.61667979 -0.00357875 5.10106887 -0.00173995 6.58544922 0.00244141 C8.86562708 0.00780883 11.14560939 0.00248079 13.42578125 -0.00390625 C14.86718794 -0.00324574 16.3085945 -0.00196515 17.75 0 C19.06629395 0.00112793 20.38258789 0.00225586 21.73876953 0.00341797 C24.7421875 0.1328125 24.7421875 0.1328125 25.7421875 1.1328125 C25.8456715 3.24768209 25.8774212 5.36606598 25.88262939 7.48345947 C25.88560052 8.15457221 25.88857164 8.82568494 25.8916328 9.51713443 C25.90035558 11.78259418 25.90183106 14.04800131 25.90332031 16.31347656 C25.90794605 17.93110773 25.91297037 19.5487378 25.91836548 21.16636658 C25.93151712 25.5735269 25.93794008 29.98067196 25.94237614 34.38784885 C25.94530308 37.13957743 25.9494072 39.8913018 25.95388031 42.64302826 C25.96756397 51.24741321 25.97722575 59.85178859 25.9810822 68.45618367 C25.98556197 78.39773269 26.00310246 88.33914415 26.0320828 98.28065133 C26.05368771 105.95797135 26.06378588 113.63525265 26.06512332 121.31260276 C26.06617242 125.90092227 26.07210219 130.48911263 26.08994293 135.07740021 C26.10640256 139.39477869 26.10858942 143.71193066 26.09980392 148.0293293 C26.09903235 149.6139925 26.10339209 151.19866775 26.11326218 152.7833004 C26.12594961 154.9472145 26.12012299 157.11032259 26.10968018 159.27423096 C26.11114674 160.48508991 26.1126133 161.69594887 26.1141243 162.94350052 C25.70349919 166.46455998 24.9131597 168.34974483 22.7421875 171.1328125 C19.10985648 172.34358951 15.79096763 172.25725414 12.01171875 172.23046875 C11.26129807 172.2290538 10.51087738 172.22763885 9.73771667 172.22618103 C7.3433329 172.2205881 4.94904297 172.20803694 2.5546875 172.1953125 C0.93033989 172.19029658 -0.69400918 172.18573384 -2.31835938 172.18164062 C-6.29821319 172.17062098 -10.27799694 172.15336123 -14.2578125 172.1328125 C-14.35119786 150.42784155 -14.42176326 128.72290367 -14.46506119 107.01777267 C-14.48569832 96.94000285 -14.51384089 86.86235775 -14.55957031 76.78466797 C-14.59940286 68.00233448 -14.62523694 59.2200913 -14.63416648 50.43766999 C-14.63938731 45.78615024 -14.65168196 41.13488889 -14.68073273 36.48345184 C-14.7078453 32.10696622 -14.71626597 27.73084591 -14.71024323 23.35428429 C-14.71134533 21.74661208 -14.71932411 20.13892788 -14.7346344 18.5313282 C-14.75449827 16.33836654 -14.74976624 14.14678919 -14.73883057 11.95379639 C-14.74251774 10.72596813 -14.74620491 9.49813988 -14.75000381 8.23310471 C-14.16086043 4.52211551 -13.21602466 3.37630519 -10.2578125 1.1328125 C-6.67544213 -0.06131096 -3.78039793 0.00323387 0 0 Z " fill="#000000" transform="translate(570.2578125,57.8671875)"/>
<path d="M0 0 C1.05904289 0.00212242 1.05904289 0.00212242 2.13948059 0.00428772 C4.39120751 0.00987861 6.64283446 0.02242937 8.89453125 0.03515625 C10.4225246 0.04017243 11.95051952 0.04473513 13.47851562 0.04882812 C17.2213926 0.05984505 20.96419498 0.07710338 24.70703125 0.09765625 C24.82372904 22.08064261 24.91195292 44.06357805 24.96609211 66.0468111 C24.99189581 76.25356195 25.02708764 86.46012057 25.08422852 96.66674805 C25.13399726 105.56077375 25.1663065 114.45466027 25.17747372 123.34882134 C25.18400359 128.06017448 25.19939525 132.77112937 25.23568153 137.48235512 C25.26953806 141.91388198 25.28010531 146.34484535 25.27256966 150.77648926 C25.27394886 152.40555569 25.28394316 154.03464034 25.30305862 155.6635952 C25.32783718 157.88342891 25.32199494 160.10111871 25.30830383 162.32099915 C25.3129128 163.56449788 25.31752176 164.80799662 25.32227039 166.08917713 C24.70703125 169.09765625 24.70703125 169.09765625 22.66481304 171.00288677 C18.978274 172.36739258 15.6543891 172.47416164 11.78125 172.390625 C11.03365921 172.38638016 10.28606842 172.38213531 9.51582336 172.37776184 C7.14168393 172.36104681 4.76841158 172.32340972 2.39453125 172.28515625 C0.77930919 172.27010006 -0.83592626 172.25641328 -2.45117188 172.24414062 C-6.39876863 172.21116705 -10.34572197 172.15943594 -14.29296875 172.09765625 C-14.38635411 150.3926853 -14.45691951 128.68774742 -14.50021744 106.98261642 C-14.52085457 96.9048466 -14.54899714 86.8272015 -14.59472656 76.74951172 C-14.63455911 67.96717823 -14.66039319 59.18493505 -14.66932273 50.40251374 C-14.67454356 45.75099399 -14.68683821 41.09973264 -14.71588898 36.44829559 C-14.74300155 32.07180997 -14.75142222 27.69568966 -14.74539948 23.31912804 C-14.74650158 21.71145583 -14.75448036 20.10377163 -14.76979065 18.49617195 C-14.78965452 16.30321029 -14.78492249 14.11163294 -14.77398682 11.91864014 C-14.77767399 10.69081188 -14.78136116 9.46298363 -14.78516006 8.19794846 C-14.19601668 4.48695926 -13.25118091 3.34114894 -10.29296875 1.09765625 C-6.78672445 -0.07109185 -3.64518215 -0.02748642 0 0 Z " fill="#000000" transform="translate(812.29296875,57.90234375)"/>
<path d="M0 0 C4.59214268 2.95637944 8.31299281 5.96232679 10.1015625 11.26953125 C11.40567244 17.81843117 11.64446498 22.86772906 8.265625 28.7890625 C4.86810669 33.15491527 1.59656166 36.09973728 -3.734375 37.7890625 C-9.89287009 38.47931595 -15.58366652 38.5350323 -20.734375 34.7890625 C-26.02115373 29.51327499 -28.84649377 25.79573137 -29.171875 18.1640625 C-29.10789359 11.55798208 -27.24765782 7.55420262 -22.734375 2.7890625 C-16.42135537 -2.49326005 -7.58380564 -3.3585425 0 0 Z " fill="#010101" transform="translate(584.734375,1.2109375)"/>
<path d="M0 0 C4.52674177 2.81895945 8.25902856 5.86131682 10.30859375 10.8515625 C11.25377061 17.65181725 11.45679711 23.96599794 7.80859375 29.9765625 C3.86418658 34.91396728 -0.12892921 37.31069007 -6.3671875 38.2578125 C-13.09056824 38.62978377 -17.59532877 37.2609345 -22.69140625 32.8515625 C-27.80302102 27.3363992 -29.18010108 23.09550019 -28.9921875 15.66796875 C-28.41994562 10.30970387 -26.66441314 6.8373259 -22.87890625 3.02734375 C-16.17812315 -2.25691351 -7.917275 -3.37834376 0 0 Z " fill="#000000" transform="translate(826.69140625,1.1484375)"/>
<path d="" fill="#FFFFFF" transform="translate(0,0)"/>
<path d="" fill="#FFFFFF" transform="translate(0,0)"/>
<path d="" fill="#FFFFFF" transform="translate(0,0)"/>
<path d="" fill="#FFFFFF" transform="translate(0,0)"/>
<path d="" fill="#FFFFFF" transform="translate(0,0)"/>
<path d="" fill="#FFFFFF" transform="translate(0,0)"/>
<path d="" fill="#FFFFFF" transform="translate(0,0)"/>
<path d="" fill="#FFFFFF" transform="translate(0,0)"/>
<path d="" fill="#FFFFFF" transform="translate(0,0)"/>
<path d="" fill="#FFFFFF" transform="translate(0,0)"/>
<path d="" fill="#FFFFFF" transform="translate(0,0)"/>
<path d="" fill="#FFFFFF" transform="translate(0,0)"/>
<path d="" fill="#FFFFFF" transform="translate(0,0)"/>
<path d="" fill="#FFFFFF" transform="translate(0,0)"/>
<path d="" fill="#FFFFFF" transform="translate(0,0)"/>
<path d="" fill="#FFFFFF" transform="translate(0,0)"/>
<path d="" fill="#FFFFFF" transform="translate(0,0)"/>
<path d="" fill="#FFFFFF" transform="translate(0,0)"/>
<path d="" fill="#FFFFFF" transform="translate(0,0)"/>
<path d="" fill="#FFFFFF" transform="translate(0,0)"/>
<path d="" fill="#FFFFFF" transform="translate(0,0)"/>
<path d="" fill="#FFFFFF" transform="translate(0,0)"/>
<path d="" fill="#FFFFFF" transform="translate(0,0)"/>
<path d="" fill="#FFFFFF" transform="translate(0,0)"/>
<path d="" fill="#FFFFFF" transform="translate(0,0)"/>
<path d="" fill="#FFFFFF" transform="translate(0,0)"/>
<path d="" fill="#FFFFFF" transform="translate(0,0)"/>
<path d="" fill="#FFFFFF" transform="translate(0,0)"/>
<path d="" fill="#FFFFFF" transform="translate(0,0)"/>
<path d="" fill="#FFFFFF" transform="translate(0,0)"/>
<path d="" fill="#FFFFFF" transform="translate(0,0)"/>
<path d="" fill="#FFFFFF" transform="translate(0,0)"/>
<path d="" fill="#FFFFFF" transform="translate(0,0)"/>
<path d="" fill="#FFFFFF" transform="translate(0,0)"/>
<path d="" fill="#FFFFFF" transform="translate(0,0)"/>
<path d="" fill="#FFFFFF" transform="translate(0,0)"/>
<path d="" fill="#FFFFFF" transform="translate(0,0)"/>
<path d="" fill="#FFFFFF" transform="translate(0,0)"/>
<path d="" fill="#FFFFFF" transform="translate(0,0)"/>
<path d="" fill="#FFFFFF" transform="translate(0,0)"/>
<path d="" fill="#FFFFFF" transform="translate(0,0)"/>
<path d="" fill="#FFFFFF" transform="translate(0,0)"/>
<path d="" fill="#FFFFFF" transform="translate(0,0)"/>
<path d="" fill="#FFFFFF" transform="translate(0,0)"/>
<path d="" fill="#FFFFFF" transform="translate(0,0)"/>
<path d="" fill="#FFFFFF" transform="translate(0,0)"/>
<path d="" fill="#FFFFFF" transform="translate(0,0)"/>
<path d="" fill="#FFFFFF" transform="translate(0,0)"/>
<path d="" fill="#FFFFFF" transform="translate(0,0)"/>
<path d="" fill="#FFFFFF" transform="translate(0,0)"/>
<path d="" fill="#FFFFFF" transform="translate(0,0)"/>
<path d="" fill="#FFFFFF" transform="translate(0,0)"/>
<path d="" fill="#FFFFFF" transform="translate(0,0)"/>
<path d="" fill="#FFFFFF" transform="translate(0,0)"/>
<path d="" fill="#FFFFFF" transform="translate(0,0)"/>
<path d="" fill="#FFFFFF" transform="translate(0,0)"/>
<path d="" fill="#FFFFFF" transform="translate(0,0)"/>
<path d="" fill="#FFFFFF" transform="translate(0,0)"/>
<path d="" fill="#FFFFFF" transform="translate(0,0)"/>
<path d="" fill="#FFFFFF" transform="translate(0,0)"/>
<path d="" fill="#FFFFFF" transform="translate(0,0)"/>
<path d="" fill="#FFFFFF" transform="translate(0,0)"/>
</svg>
