<svg width="17" height="20" viewBox="0 0 17 20" fill="none" xmlns="http://www.w3.org/2000/svg">
<path d="M10.0039 16.2529C10.0039 16.4518 9.92489 16.6426 9.78424 16.7833C9.64358 16.9239 9.45282 17.0029 9.25391 17.0029H7.75391C7.55499 17.0029 7.36423 16.9239 7.22358 16.7833C7.08292 16.6426 7.00391 16.4518 7.00391 16.2529C7.00391 16.054 7.08292 15.8633 7.22358 15.7226C7.36423 15.5819 7.55499 15.5029 7.75391 15.5029H9.25391C9.45282 15.5029 9.64358 15.5819 9.78424 15.7226C9.92489 15.8633 10.0039 16.054 10.0039 16.2529ZM7.75391 5.00293H9.25391C9.45282 5.00293 9.64358 4.92391 9.78424 4.78326C9.92489 4.64261 10.0039 4.45184 10.0039 4.25293C10.0039 4.05402 9.92489 3.86325 9.78424 3.7226C9.64358 3.58195 9.45282 3.50293 9.25391 3.50293H7.75391C7.55499 3.50293 7.36423 3.58195 7.22358 3.7226C7.08292 3.86325 7.00391 4.05402 7.00391 4.25293C7.00391 4.45184 7.08292 4.64261 7.22358 4.78326C7.36423 4.92391 7.55499 5.00293 7.75391 5.00293ZM9.25391 9.50293H7.75391C7.55499 9.50293 7.36423 9.58195 7.22358 9.7226C7.08292 9.86325 7.00391 10.054 7.00391 10.2529C7.00391 10.4518 7.08292 10.6426 7.22358 10.7833C7.36423 10.9239 7.55499 11.0029 7.75391 11.0029H9.25391C9.45282 11.0029 9.64358 10.9239 9.78424 10.7833C9.92489 10.6426 10.0039 10.4518 10.0039 10.2529C10.0039 10.054 9.92489 9.86325 9.78424 9.7226C9.64358 9.58195 9.45282 9.50293 9.25391 9.50293ZM16.7539 2.00293V18.5029C16.7539 18.9008 16.5959 19.2823 16.3146 19.5636C16.0333 19.8449 15.6517 20.0029 15.2539 20.0029H1.75391C1.35608 20.0029 0.974551 19.8449 0.693246 19.5636C0.411941 19.2823 0.253906 18.9008 0.253906 18.5029V2.00293C0.253906 1.6051 0.411941 1.22357 0.693246 0.942269C0.974551 0.660965 1.35608 0.50293 1.75391 0.50293H15.2539C15.6517 0.50293 16.0333 0.660965 16.3146 0.942269C16.5959 1.22357 16.7539 1.6051 16.7539 2.00293ZM1.75391 12.5029H15.2539V8.00293H1.75391V12.5029ZM1.75391 2.00293V6.50293H15.2539V2.00293H1.75391ZM15.2539 18.5029V14.0029H1.75391V18.5029H15.2539Z" fill="#7A2BF7"/>
</svg>
