<svg width="25" height="25" viewBox="0 0 25 25" fill="none" xmlns="http://www.w3.org/2000/svg">
<path d="M20.7539 4.00293H4.25391C3.85608 4.00293 3.47455 4.16096 3.19325 4.44227C2.91194 4.72357 2.75391 5.1051 2.75391 5.50293V19.0029C2.75391 19.4008 2.91194 19.7823 3.19325 20.0636C3.47455 20.3449 3.85608 20.5029 4.25391 20.5029H20.7539C21.1517 20.5029 21.5333 20.3449 21.8146 20.0636C22.0959 19.7823 22.2539 19.4008 22.2539 19.0029V5.50293C22.2539 5.1051 22.0959 4.72357 21.8146 4.44227C21.5333 4.16096 21.1517 4.00293 20.7539 4.00293ZM20.7539 19.0029H4.25391V5.50293H20.7539V19.0029ZM17.7539 9.25293C17.7539 9.45184 17.6749 9.64261 17.5342 9.78326C17.3936 9.92391 17.2028 10.0029 17.0039 10.0029H8.00391C7.80499 10.0029 7.61423 9.92391 7.47358 9.78326C7.33292 9.64261 7.25391 9.45184 7.25391 9.25293C7.25391 9.05402 7.33292 8.86325 7.47358 8.7226C7.61423 8.58195 7.80499 8.50293 8.00391 8.50293H17.0039C17.2028 8.50293 17.3936 8.58195 17.5342 8.7226C17.6749 8.86325 17.7539 9.05402 17.7539 9.25293ZM17.7539 12.2529C17.7539 12.4518 17.6749 12.6426 17.5342 12.7833C17.3936 12.9239 17.2028 13.0029 17.0039 13.0029H8.00391C7.80499 13.0029 7.61423 12.9239 7.47358 12.7833C7.33292 12.6426 7.25391 12.4518 7.25391 12.2529C7.25391 12.054 7.33292 11.8633 7.47358 11.7226C7.61423 11.5819 7.80499 11.5029 8.00391 11.5029H17.0039C17.2028 11.5029 17.3936 11.5819 17.5342 11.7226C17.6749 11.8633 17.7539 12.054 17.7539 12.2529ZM17.7539 15.2529C17.7539 15.4518 17.6749 15.6426 17.5342 15.7833C17.3936 15.9239 17.2028 16.0029 17.0039 16.0029H8.00391C7.80499 16.0029 7.61423 15.9239 7.47358 15.7833C7.33292 15.6426 7.25391 15.4518 7.25391 15.2529C7.25391 15.054 7.33292 14.8633 7.47358 14.7226C7.61423 14.5819 7.80499 14.5029 8.00391 14.5029H17.0039C17.2028 14.5029 17.3936 14.5819 17.5342 14.7226C17.6749 14.8633 17.7539 15.054 17.7539 15.2529Z" fill="#7A2BF7"/>
</svg>
