<svg width="25" height="25" viewBox="0 0 25 25" fill="none" xmlns="http://www.w3.org/2000/svg">
<g clip-path="url(#clip0_501_7079)">
<path d="M11.496 15.0583C12.5012 14.3891 13.2644 13.4141 13.6726 12.2777C14.0809 11.1412 14.1126 9.90354 13.763 8.74767C13.4134 7.5918 12.7012 6.57911 11.7315 5.85935C10.7619 5.13959 9.5864 4.75098 8.37883 4.75098C7.17126 4.75098 5.99574 5.13959 5.02612 5.85935C4.05649 6.57911 3.34423 7.5918 2.99467 8.74767C2.6451 9.90354 2.67679 11.1412 3.08505 12.2777C3.4933 13.4141 4.25645 14.3891 5.26164 15.0583C3.44335 15.7284 1.89049 16.9685 0.834768 18.5936C0.779283 18.676 0.740743 18.7687 0.721388 18.8662C0.702033 18.9637 0.70225 19.0641 0.722026 19.1615C0.741801 19.2589 0.780741 19.3514 0.836582 19.4336C0.892423 19.5158 0.964051 19.5861 1.0473 19.6404C1.13055 19.6947 1.22377 19.7319 1.32153 19.7499C1.41928 19.7679 1.51964 19.7662 1.61675 19.745C1.71387 19.7239 1.8058 19.6836 1.88722 19.6266C1.96864 19.5696 2.03792 19.497 2.09102 19.4129C2.77201 18.3656 3.70385 17.5049 4.80193 16.9091C5.9 16.3132 7.12952 16.0012 8.37883 16.0012C9.62814 16.0012 10.8577 16.3132 11.9557 16.9091C13.0538 17.5049 13.9857 18.3656 14.6666 19.4129C14.7766 19.5764 14.9466 19.6901 15.1397 19.7293C15.3328 19.7685 15.5336 19.7301 15.6986 19.6225C15.8637 19.5148 15.9797 19.3465 16.0217 19.154C16.0637 18.9615 16.0282 18.7601 15.9229 18.5936C14.8672 16.9685 13.3143 15.7284 11.496 15.0583ZM4.25383 10.3783C4.25383 9.56241 4.49576 8.76488 4.94902 8.08653C5.40228 7.40818 6.04652 6.87947 6.80026 6.56726C7.55401 6.25504 8.38341 6.17336 9.18358 6.33252C9.98375 6.49168 10.7188 6.88455 11.2956 7.46144C11.8725 8.03833 12.2654 8.77334 12.4246 9.57351C12.5837 10.3737 12.502 11.2031 12.1898 11.9568C11.8776 12.7106 11.3489 13.3548 10.6706 13.8081C9.99221 14.2613 9.19468 14.5033 8.37883 14.5033C7.28519 14.502 6.2367 14.067 5.46339 13.2937C4.69007 12.5204 4.25507 11.4719 4.25383 10.3783ZM23.9545 19.6314C23.7879 19.74 23.5849 19.778 23.3903 19.7371C23.1957 19.6961 23.0253 19.5795 22.9166 19.4129C22.2365 18.3649 21.3047 17.5039 20.2064 16.9083C19.1081 16.3127 17.8782 16.0016 16.6288 16.0033C16.4299 16.0033 16.2392 15.9242 16.0985 15.7836C15.9578 15.6429 15.8788 15.4522 15.8788 15.2533C15.8788 15.0543 15.9578 14.8636 16.0985 14.7229C16.2392 14.5823 16.4299 14.5033 16.6288 14.5033C17.2363 14.5027 17.8361 14.3679 18.3855 14.1087C18.9349 13.8494 19.4202 13.472 19.8068 13.0034C20.1934 12.5348 20.4717 11.9867 20.6219 11.398C20.7721 10.8094 20.7904 10.1949 20.6756 9.5984C20.5607 9.00188 20.3155 8.43809 19.9575 7.94732C19.5995 7.45654 19.1376 7.05089 18.6046 6.75935C18.0717 6.46781 17.4809 6.29758 16.8746 6.26082C16.2682 6.22406 15.6612 6.32168 15.097 6.5467C15.005 6.58647 14.9059 6.60739 14.8057 6.60824C14.7055 6.60909 14.6061 6.58984 14.5134 6.55163C14.4208 6.51342 14.3367 6.45702 14.2662 6.38577C14.1957 6.31453 14.1402 6.22987 14.103 6.13681C14.0658 6.04375 14.0476 5.94417 14.0495 5.84396C14.0514 5.74375 14.0734 5.64494 14.1141 5.55337C14.1549 5.4618 14.2136 5.37932 14.2867 5.31081C14.3599 5.24231 14.446 5.18916 14.5401 5.15451C15.8315 4.63949 17.2678 4.62096 18.572 5.10248C19.8763 5.58401 20.956 6.53147 21.6028 7.76209C22.2497 8.99271 22.4179 10.4193 22.075 11.7666C21.7322 13.114 20.9025 14.2866 19.746 15.0583C21.5643 15.7284 23.1172 16.9685 24.1729 18.5936C24.2815 18.7602 24.3195 18.9631 24.2786 19.1577C24.2376 19.3523 24.121 19.5227 23.9545 19.6314Z" fill="#7A2BF7"/>
</g>
<defs>
<clipPath id="clip0_501_7079">
<rect width="24" height="24" fill="white" transform="translate(0.886719 0.265625)"/>
</clipPath>
</defs>
</svg>
