<svg width="31" height="36" viewBox="0 0 31 36" fill="none" xmlns="http://www.w3.org/2000/svg">
<path d="M30.1098 10.192L20.6598 0.742043C20.5343 0.616717 20.3854 0.517338 20.2215 0.449584C20.0577 0.38183 19.882 0.347029 19.7047 0.347168H3.50469C2.7886 0.347168 2.10185 0.631632 1.5955 1.13798C1.08915 1.64433 0.804688 2.33108 0.804688 3.04717V32.7472C0.804688 33.4633 1.08915 34.15 1.5955 34.6564C2.10185 35.1627 2.7886 35.4472 3.50469 35.4472H27.8047C28.5208 35.4472 29.2075 35.1627 29.7139 34.6564C30.2202 34.15 30.5047 33.4633 30.5047 32.7472V11.1472C30.5048 10.9698 30.47 10.7942 30.4023 10.6303C30.3345 10.4664 30.2351 10.3175 30.1098 10.192ZM21.0547 4.95573L25.8961 9.79717H21.0547V4.95573ZM27.8047 32.7472H3.50469V3.04717H18.3547V11.1472C18.3547 11.5052 18.4969 11.8486 18.7501 12.1018C19.0033 12.3549 19.3466 12.4972 19.7047 12.4972H27.8047V32.7472ZM22.4047 19.2472C22.4047 19.6052 22.2625 19.9486 22.0093 20.2018C21.7561 20.4549 21.4127 20.5972 21.0547 20.5972H10.2547C9.89665 20.5972 9.55327 20.4549 9.30009 20.2018C9.04692 19.9486 8.90469 19.6052 8.90469 19.2472C8.90469 18.8891 9.04692 18.5457 9.30009 18.2926C9.55327 18.0394 9.89665 17.8972 10.2547 17.8972H21.0547C21.4127 17.8972 21.7561 18.0394 22.0093 18.2926C22.2625 18.5457 22.4047 18.8891 22.4047 19.2472ZM22.4047 24.6472C22.4047 25.0052 22.2625 25.3486 22.0093 25.6018C21.7561 25.8549 21.4127 25.9972 21.0547 25.9972H10.2547C9.89665 25.9972 9.55327 25.8549 9.30009 25.6018C9.04692 25.3486 8.90469 25.0052 8.90469 24.6472C8.90469 24.2891 9.04692 23.9457 9.30009 23.6926C9.55327 23.4394 9.89665 23.2972 10.2547 23.2972H21.0547C21.4127 23.2972 21.7561 23.4394 22.0093 23.6926C22.2625 23.9457 22.4047 24.2891 22.4047 24.6472Z" fill="#7A2BF7"/>
</svg>
