<svg width="13" height="28" viewBox="0 0 13 28" fill="none" xmlns="http://www.w3.org/2000/svg">
<g opacity="0.75" filter="url(#filter0_d_535_386)">
<path fill-rule="evenodd" clip-rule="evenodd" d="M5.75697 23.9043C5.20468 23.9043 4.75697 23.4566 4.75697 22.9043L4.75697 21.0525C4.75697 20.5002 5.20468 20.0525 5.75697 20.0525L7.26953 20.0525C7.82182 20.0525 8.26953 20.5002 8.26953 21.0525L8.26953 22.9043C8.26953 23.4566 7.82182 23.9043 7.26953 23.9043L5.75697 23.9043Z" fill="#DEDEDE"/>
<path fill-rule="evenodd" clip-rule="evenodd" d="M5.76087 17.6508C5.20859 17.6508 4.76087 17.2031 4.76087 16.6508L4.76087 5.62476C4.76087 5.07247 5.20859 4.62476 5.76087 4.62476L7.27344 4.62476C7.82572 4.62476 8.27344 5.07247 8.27344 5.62476L8.27344 16.6508C8.27344 17.2031 7.82572 17.6508 7.27344 17.6508L5.76087 17.6508Z" fill="#DEDEDE"/>
</g>
<defs>
<filter id="filter0_d_535_386" x="0.756836" y="0.624756" width="11.5166" height="27.2795" filterUnits="userSpaceOnUse" color-interpolation-filters="sRGB">
<feFlood flood-opacity="0" result="BackgroundImageFix"/>
<feColorMatrix in="SourceAlpha" type="matrix" values="0 0 0 0 0 0 0 0 0 0 0 0 0 0 0 0 0 0 127 0" result="hardAlpha"/>
<feOffset/>
<feGaussianBlur stdDeviation="2"/>
<feComposite in2="hardAlpha" operator="out"/>
<feColorMatrix type="matrix" values="0 0 0 0 0 0 0 0 0 0 0 0 0 0 0 0 0 0 0.15 0"/>
<feBlend mode="normal" in2="BackgroundImageFix" result="effect1_dropShadow_535_386"/>
<feBlend mode="normal" in="SourceGraphic" in2="effect1_dropShadow_535_386" result="shape"/>
</filter>
</defs>
</svg>
